<svg id="svg" version="1.1" xmlns="http://www.w3.org/2000/svg" xmlns:xlink="http://www.w3.org/1999/xlink" width="400" height="400" viewBox="0, 0, 400,400"><g id="svgg"><path id="path0" d="M195.400 41.454 C 190.374 42.251,183.849 44.937,179.906 47.834 C 176.450 50.372,51.391 175.256,50.658 176.900 C 46.856 185.434,51.963 193.761,61.000 193.763 C 65.392 193.764,66.654 193.029,73.200 186.657 L 78.600 181.400 78.824 235.600 C 78.947 265.410,79.182 290.340,79.346 291.000 C 79.510 291.660,79.831 293.010,80.060 294.000 C 83.489 308.821,94.982 321.690,109.600 327.077 C 117.082 329.834,116.634 329.800,145.400 329.800 L 171.400 329.800 173.288 328.861 C 175.555 327.735,177.779 325.371,178.945 322.849 L 179.800 321.000 179.912 271.700 L 180.024 222.400 200.612 222.400 L 221.200 222.400 221.204 270.900 C 221.209 323.014,221.144 321.273,223.209 324.615 C 224.257 326.311,226.414 328.206,228.315 329.101 C 230.952 330.342,279.161 330.150,284.400 328.877 C 301.922 324.620,315.710 311.293,319.657 294.800 C 322.509 282.880,321.252 276.349,315.471 273.044 C 306.884 268.137,297.600 274.492,297.600 285.277 C 297.600 291.455,292.374 299.632,286.061 303.332 C 280.720 306.463,279.847 306.578,261.400 306.590 L 245.000 306.600 244.800 257.200 L 244.600 207.800 243.659 205.906 C 242.416 203.405,240.218 201.190,237.779 199.981 L 235.800 199.000 200.800 199.000 C 162.682 199.000,164.885 198.872,161.287 201.300 C 159.460 202.533,157.890 204.605,157.094 206.833 C 156.724 207.869,156.557 220.114,156.403 257.400 L 156.200 306.600 139.200 306.587 C 122.665 306.574,122.120 306.549,119.285 305.666 C 111.576 303.263,105.661 297.396,103.280 289.789 L 102.400 286.977 102.400 222.143 L 102.400 157.308 147.635 112.355 C 199.155 61.156,196.134 63.780,202.400 64.770 C 206.744 65.456,200.391 59.394,267.088 126.498 L 297.600 157.196 297.600 190.124 C 297.600 228.132,297.597 228.091,300.881 231.832 C 306.590 238.333,317.313 236.359,320.348 228.248 C 321.180 226.024,321.200 225.444,321.200 203.785 C 321.200 191.583,321.338 181.600,321.506 181.600 C 321.674 181.600,324.139 183.933,326.985 186.785 C 333.549 193.364,336.287 194.661,341.378 193.605 C 347.565 192.320,351.807 185.883,350.386 179.933 C 349.400 175.799,357.421 184.125,263.929 90.200 C 244.221 70.400,227.219 53.295,226.148 52.190 C 218.349 44.140,205.894 39.791,195.400 41.454 " stroke="none" fill="#fafbfc" fill-rule="evenodd"></path><path id="path1" d="M193.023 0.363 C 192.900 0.562,193.204 0.628,193.699 0.508 C 194.438 0.330,194.510 0.388,194.100 0.826 C 193.714 1.238,193.600 5.896,193.600 21.280 L 193.600 41.200 194.800 41.200 C 195.460 41.200,196.000 41.020,196.000 40.800 C 196.000 40.559,197.659 40.400,200.176 40.400 C 202.529 40.400,204.461 40.575,204.600 40.800 C 204.736 41.020,205.726 41.200,206.800 41.200 C 207.874 41.200,208.864 41.380,209.000 41.600 C 209.136 41.820,209.766 42.000,210.400 42.000 C 211.034 42.000,211.664 42.180,211.800 42.400 C 211.936 42.620,212.372 42.800,212.768 42.800 C 213.676 42.800,219.285 45.667,221.177 47.099 C 221.960 47.691,222.859 48.361,223.175 48.588 C 223.924 49.125,235.248 60.473,253.923 79.400 C 262.172 87.760,286.635 112.455,308.285 134.277 C 329.935 156.100,348.001 174.402,348.432 174.949 C 354.564 182.745,348.863 194.128,338.849 194.084 C 334.536 194.066,333.225 193.313,327.284 187.451 C 324.581 184.783,322.207 182.544,322.009 182.475 C 321.799 182.402,321.591 191.759,321.512 204.875 L 321.375 227.400 320.294 229.415 C 316.300 236.861,306.727 238.322,300.899 232.376 C 297.422 228.828,297.600 230.999,297.600 192.058 L 297.600 157.745 253.464 113.573 C 203.466 63.533,206.030 66.000,204.029 66.000 C 203.599 66.000,203.136 65.820,203.000 65.600 C 202.864 65.380,201.773 65.200,200.576 65.200 C 199.379 65.200,198.400 65.380,198.400 65.600 C 198.400 65.820,198.076 66.000,197.680 66.000 C 196.786 66.000,194.807 66.894,194.803 67.300 C 194.801 67.465,194.530 67.600,194.200 67.600 C 193.669 67.600,193.600 75.111,193.600 132.800 L 193.600 198.000 212.300 198.008 C 238.309 198.019,240.611 198.560,244.045 205.477 L 245.000 207.400 245.112 256.708 L 245.224 306.017 262.112 305.893 C 280.381 305.758,280.300 305.767,285.019 303.403 C 287.901 301.960,293.600 296.883,293.600 295.759 C 293.600 295.488,293.735 295.207,293.900 295.133 C 295.171 294.569,297.600 286.205,297.600 282.395 C 297.600 274.136,307.349 268.441,314.924 272.276 C 320.431 275.064,322.950 283.446,320.773 291.739 C 320.533 292.653,320.147 294.120,319.915 295.000 C 317.289 304.956,310.397 315.437,303.200 320.419 C 302.430 320.952,301.480 321.661,301.088 321.994 C 299.129 323.662,292.486 326.979,289.000 328.029 C 288.120 328.295,286.950 328.649,286.400 328.818 C 281.046 330.456,275.107 330.800,252.207 330.800 C 231.655 330.800,231.063 330.764,227.667 329.304 C 226.025 328.598,222.400 325.113,222.400 324.240 C 222.400 323.888,222.220 323.600,222.000 323.600 C 221.780 323.600,221.600 323.251,221.600 322.824 C 221.600 322.397,221.420 321.936,221.200 321.800 C 220.937 321.637,220.800 304.663,220.800 272.176 L 220.800 222.800 214.464 222.800 C 210.979 222.800,204.859 222.918,200.864 223.063 L 193.600 223.326 193.600 310.983 C 193.600 380.557,193.703 398.750,194.100 399.174 C 194.510 399.612,194.438 399.670,193.699 399.492 C 193.204 399.372,192.900 399.438,193.023 399.637 C 193.326 400.127,195.091 400.099,195.400 399.600 C 195.536 399.380,195.952 399.213,196.324 399.228 C 196.877 399.251,196.855 399.320,196.200 399.610 C 195.561 399.892,206.495 399.879,223.788 399.577 C 224.221 399.570,224.682 399.392,224.811 399.182 C 224.941 398.972,226.342 398.780,227.924 398.756 C 229.506 398.732,230.800 398.552,230.800 398.356 C 230.800 398.160,231.574 398.000,232.520 398.000 C 233.466 398.000,234.482 397.775,234.779 397.500 C 235.216 397.094,235.258 397.112,235.000 397.600 C 234.742 398.088,234.784 398.106,235.221 397.700 C 235.518 397.425,236.588 397.200,237.600 397.200 C 238.612 397.200,239.611 397.035,239.820 396.834 C 240.029 396.632,240.830 396.411,241.600 396.342 C 242.370 396.274,243.094 396.089,243.209 395.932 C 243.324 395.775,244.260 395.603,245.287 395.550 C 246.315 395.496,247.065 395.306,246.955 395.126 C 246.844 394.947,247.303 394.778,247.976 394.750 C 249.690 394.680,249.894 394.639,250.233 394.300 C 250.398 394.135,251.144 394.000,251.890 394.000 C 252.693 394.000,253.146 393.837,253.000 393.600 C 252.856 393.366,253.264 393.200,253.982 393.200 C 254.658 393.200,255.523 393.042,255.905 392.849 C 257.033 392.280,259.396 391.600,260.248 391.600 C 260.684 391.600,261.256 391.384,261.520 391.120 C 261.784 390.856,262.000 390.771,262.000 390.930 C 262.000 391.090,262.538 390.942,263.196 390.602 C 263.854 390.262,264.484 389.987,264.596 389.992 C 264.708 389.996,264.845 389.985,264.900 389.967 C 264.955 389.949,265.536 389.847,266.190 389.741 C 266.845 389.635,267.565 389.413,267.790 389.246 C 268.016 389.080,269.010 388.691,270.000 388.381 C 270.990 388.071,272.596 387.417,273.569 386.928 C 274.543 386.439,275.488 386.131,275.669 386.243 C 275.851 386.355,276.000 386.257,276.000 386.024 C 276.000 385.791,276.360 385.600,276.800 385.600 C 277.240 385.600,277.600 385.420,277.600 385.200 C 277.600 384.980,278.050 384.800,278.600 384.800 C 279.150 384.800,279.600 384.620,279.600 384.400 C 279.600 384.180,279.968 384.000,280.417 384.000 C 280.866 384.000,281.620 383.640,282.092 383.200 C 282.564 382.760,283.457 382.400,284.075 382.400 C 284.694 382.400,285.201 382.265,285.203 382.100 C 285.206 381.789,287.103 380.800,287.696 380.800 C 287.882 380.800,288.420 380.440,288.892 380.000 C 289.364 379.560,290.101 379.200,290.529 379.200 C 290.956 379.200,291.629 378.828,292.023 378.374 C 292.417 377.919,292.843 377.559,292.970 377.574 C 293.938 377.684,294.408 377.537,294.194 377.190 C 294.055 376.965,294.089 376.806,294.270 376.837 C 295.159 376.992,295.927 376.728,296.708 376.000 C 297.180 375.560,297.844 375.200,298.183 375.200 C 298.522 375.200,298.800 375.009,298.800 374.776 C 298.800 374.543,298.957 374.450,299.148 374.568 C 299.339 374.686,300.014 374.336,300.648 373.789 C 301.282 373.243,302.025 372.881,302.300 372.985 C 302.575 373.090,302.800 373.001,302.800 372.787 C 302.800 372.574,303.070 372.400,303.400 372.400 C 303.730 372.400,304.000 372.220,304.000 372.000 C 304.000 371.780,304.270 371.600,304.600 371.600 C 304.930 371.600,305.200 371.464,305.200 371.298 C 305.200 371.131,305.785 370.740,306.500 370.428 C 307.215 370.116,308.091 369.532,308.447 369.130 C 308.803 368.729,309.298 368.400,309.547 368.400 C 309.796 368.400,310.000 368.220,310.000 368.000 C 310.000 367.780,310.270 367.600,310.600 367.600 C 310.930 367.600,311.200 367.432,311.200 367.227 C 311.200 367.022,311.538 366.747,311.951 366.616 C 312.364 366.484,313.219 365.933,313.851 365.389 C 314.483 364.846,315.225 364.401,315.500 364.400 C 315.775 364.400,316.000 364.220,316.000 364.000 C 316.000 363.780,316.281 363.600,316.624 363.600 C 316.967 363.600,317.136 363.420,317.000 363.200 C 316.864 362.980,317.033 362.800,317.376 362.800 C 317.719 362.800,318.000 362.620,318.000 362.400 C 318.000 362.180,318.270 362.000,318.600 362.000 C 318.930 362.000,319.200 361.820,319.200 361.600 C 319.200 361.380,319.571 361.200,320.024 361.200 C 320.477 361.200,320.736 361.020,320.600 360.800 C 320.464 360.580,320.594 360.400,320.888 360.400 C 321.183 360.400,321.683 360.040,322.000 359.600 C 322.317 359.160,322.807 358.800,323.088 358.800 C 323.370 358.800,323.600 358.614,323.600 358.387 C 323.600 358.161,323.915 357.855,324.300 357.709 C 324.685 357.562,325.328 357.028,325.729 356.521 C 326.130 356.015,326.687 355.600,326.968 355.600 C 327.248 355.600,328.450 354.645,329.638 353.478 C 330.827 352.311,332.474 350.900,333.298 350.343 C 334.122 349.785,334.677 349.210,334.531 349.065 C 334.386 348.919,334.485 348.800,334.753 348.800 C 335.020 348.800,336.489 347.495,338.017 345.900 C 341.477 342.289,342.289 341.477,345.900 338.017 C 347.495 336.489,348.800 335.020,348.800 334.753 C 348.800 334.485,348.919 334.386,349.065 334.531 C 349.210 334.677,349.785 334.122,350.343 333.298 C 350.900 332.474,352.311 330.827,353.478 329.638 C 354.645 328.450,355.600 327.248,355.600 326.968 C 355.600 326.687,356.050 326.104,356.600 325.671 C 357.150 325.239,357.600 324.680,357.600 324.430 C 357.600 324.180,357.870 323.871,358.200 323.745 C 358.530 323.618,358.800 323.303,358.800 323.046 C 358.800 322.788,359.160 322.317,359.600 322.000 C 360.040 321.683,360.400 321.183,360.400 320.888 C 360.400 320.594,360.580 320.464,360.800 320.600 C 361.020 320.736,361.200 320.516,361.200 320.112 C 361.200 319.707,361.560 319.117,362.000 318.800 C 362.440 318.483,362.800 317.893,362.800 317.488 C 362.800 317.084,362.980 316.864,363.200 317.000 C 363.420 317.136,363.600 316.967,363.600 316.624 C 363.600 316.281,363.780 316.000,364.000 316.000 C 364.220 316.000,364.400 315.775,364.400 315.500 C 364.401 315.225,364.846 314.483,365.389 313.851 C 365.933 313.219,366.484 312.364,366.616 311.951 C 366.747 311.538,367.022 311.200,367.227 311.200 C 367.432 311.200,367.600 310.930,367.600 310.600 C 367.600 310.270,367.780 310.000,368.000 310.000 C 368.220 310.000,368.400 309.796,368.400 309.547 C 368.400 309.298,368.729 308.803,369.130 308.447 C 369.532 308.091,370.116 307.215,370.428 306.500 C 370.740 305.785,371.131 305.200,371.298 305.200 C 371.464 305.200,371.600 304.930,371.600 304.600 C 371.600 304.270,371.780 304.000,372.000 304.000 C 372.220 304.000,372.400 303.730,372.400 303.400 C 372.400 303.070,372.574 302.800,372.787 302.800 C 373.001 302.800,373.090 302.575,372.985 302.300 C 372.881 302.025,373.243 301.282,373.789 300.648 C 374.336 300.014,374.686 299.339,374.568 299.148 C 374.450 298.957,374.543 298.800,374.776 298.800 C 375.009 298.800,375.200 298.522,375.200 298.183 C 375.200 297.844,375.560 297.180,376.000 296.708 C 376.728 295.927,376.992 295.159,376.837 294.270 C 376.806 294.089,376.965 294.055,377.190 294.194 C 377.537 294.408,377.684 293.938,377.574 292.970 C 377.559 292.843,377.919 292.417,378.374 292.023 C 378.828 291.629,379.200 290.956,379.200 290.529 C 379.200 290.101,379.560 289.364,380.000 288.892 C 380.440 288.420,380.800 287.882,380.800 287.696 C 380.800 287.103,381.789 285.206,382.100 285.203 C 382.265 285.201,382.400 284.750,382.400 284.200 C 382.400 283.650,382.580 283.200,382.800 283.200 C 383.020 283.200,383.200 282.840,383.200 282.400 C 383.200 281.960,383.380 281.600,383.600 281.600 C 383.820 281.600,384.000 281.150,384.000 280.600 C 384.000 280.050,384.180 279.600,384.400 279.600 C 384.620 279.600,384.800 279.251,384.800 278.824 C 384.800 278.397,384.980 277.936,385.200 277.800 C 385.420 277.664,385.600 277.203,385.600 276.776 C 385.600 276.349,385.791 276.000,386.024 276.000 C 386.257 276.000,386.355 275.851,386.243 275.669 C 386.131 275.488,386.439 274.543,386.928 273.569 C 387.417 272.596,388.071 270.990,388.381 270.000 C 388.691 269.010,389.080 268.016,389.246 267.790 C 389.413 267.565,389.610 266.935,389.684 266.390 C 389.759 265.846,389.926 265.220,390.055 265.000 C 390.272 264.630,390.893 262.544,390.967 261.933 C 390.985 261.787,391.135 261.532,391.300 261.367 C 391.465 261.202,391.600 260.704,391.600 260.262 C 391.600 259.398,392.276 257.040,392.849 255.905 C 393.042 255.523,393.200 254.658,393.200 253.982 C 393.200 253.264,393.366 252.856,393.600 253.000 C 393.838 253.147,394.000 252.679,394.000 251.847 C 394.000 251.077,394.180 250.336,394.400 250.200 C 394.620 250.064,394.800 249.233,394.800 248.353 C 394.800 247.473,394.947 246.844,395.126 246.955 C 395.306 247.065,395.496 246.311,395.548 245.278 C 395.600 244.245,395.813 243.340,396.021 243.267 C 396.230 243.193,396.400 242.439,396.400 241.590 C 396.400 240.742,396.580 239.936,396.800 239.800 C 397.020 239.664,397.200 238.674,397.200 237.600 C 397.200 236.526,397.380 235.536,397.600 235.400 C 397.820 235.264,398.000 234.173,398.000 232.976 C 398.000 231.779,398.180 230.800,398.400 230.800 C 398.631 230.800,398.800 229.544,398.800 227.833 C 398.800 225.816,398.960 224.813,399.300 224.700 C 400.032 224.456,400.032 175.544,399.300 175.300 C 398.960 175.187,398.800 174.184,398.800 172.167 C 398.800 170.456,398.631 169.200,398.400 169.200 C 398.180 169.200,398.000 168.221,398.000 167.024 C 398.000 165.827,397.820 164.736,397.600 164.600 C 397.380 164.464,397.200 163.474,397.200 162.400 C 397.200 161.326,397.020 160.336,396.800 160.200 C 396.580 160.064,396.400 159.258,396.400 158.410 C 396.400 157.561,396.230 156.807,396.021 156.733 C 395.813 156.660,395.600 155.755,395.548 154.722 C 395.496 153.689,395.306 152.935,395.126 153.045 C 394.947 153.156,394.800 152.527,394.800 151.647 C 394.800 150.767,394.620 149.936,394.400 149.800 C 394.180 149.664,394.000 148.923,394.000 148.153 C 394.000 147.321,393.838 146.853,393.600 147.000 C 393.366 147.144,393.200 146.736,393.200 146.018 C 393.200 145.342,393.042 144.477,392.849 144.095 C 392.276 142.960,391.600 140.602,391.600 139.738 C 391.600 139.296,391.465 138.798,391.300 138.633 C 391.135 138.468,390.985 138.213,390.967 138.067 C 390.893 137.456,390.272 135.370,390.055 135.000 C 389.926 134.780,389.759 134.154,389.684 133.610 C 389.610 133.065,389.413 132.435,389.246 132.210 C 389.080 131.984,388.691 130.990,388.381 130.000 C 388.071 129.010,387.417 127.404,386.928 126.431 C 386.439 125.457,386.131 124.512,386.243 124.331 C 386.355 124.149,386.257 124.000,386.024 124.000 C 385.791 124.000,385.600 123.651,385.600 123.224 C 385.600 122.797,385.420 122.336,385.200 122.200 C 384.980 122.064,384.800 121.603,384.800 121.176 C 384.800 120.749,384.620 120.400,384.400 120.400 C 384.180 120.400,384.000 119.950,384.000 119.400 C 384.000 118.850,383.820 118.400,383.600 118.400 C 383.380 118.400,383.200 118.040,383.200 117.600 C 383.200 117.160,383.020 116.800,382.800 116.800 C 382.580 116.800,382.400 116.350,382.400 115.800 C 382.400 115.250,382.265 114.799,382.100 114.797 C 381.789 114.794,380.800 112.897,380.800 112.304 C 380.800 112.118,380.440 111.580,380.000 111.108 C 379.560 110.636,379.200 109.899,379.200 109.471 C 379.200 109.044,378.828 108.371,378.374 107.977 C 377.919 107.583,377.559 107.157,377.574 107.030 C 377.684 106.062,377.537 105.592,377.190 105.806 C 376.965 105.945,376.806 105.911,376.837 105.730 C 376.992 104.841,376.728 104.073,376.000 103.292 C 375.560 102.820,375.200 102.156,375.200 101.817 C 375.200 101.478,375.009 101.200,374.776 101.200 C 374.543 101.200,374.450 101.043,374.568 100.852 C 374.686 100.661,374.336 99.986,373.789 99.352 C 373.243 98.718,372.881 97.975,372.985 97.700 C 373.090 97.425,373.001 97.200,372.787 97.200 C 372.574 97.200,372.400 96.930,372.400 96.600 C 372.400 96.270,372.220 96.000,372.000 96.000 C 371.780 96.000,371.600 95.730,371.600 95.400 C 371.600 95.070,371.464 94.800,371.298 94.800 C 371.131 94.800,370.740 94.215,370.428 93.500 C 370.116 92.785,369.532 91.909,369.130 91.553 C 368.729 91.197,368.400 90.702,368.400 90.453 C 368.400 90.204,368.220 90.000,368.000 90.000 C 367.780 90.000,367.600 89.730,367.600 89.400 C 367.600 89.070,367.432 88.800,367.227 88.800 C 367.022 88.800,366.747 88.462,366.616 88.049 C 366.484 87.636,365.933 86.781,365.389 86.149 C 364.846 85.517,364.401 84.775,364.400 84.500 C 364.400 84.225,364.220 84.000,364.000 84.000 C 363.780 84.000,363.600 83.719,363.600 83.376 C 363.600 83.033,363.420 82.864,363.200 83.000 C 362.980 83.136,362.800 82.916,362.800 82.512 C 362.800 82.107,362.440 81.517,362.000 81.200 C 361.560 80.883,361.200 80.293,361.200 79.888 C 361.200 79.484,361.020 79.264,360.800 79.400 C 360.580 79.536,360.400 79.406,360.400 79.112 C 360.400 78.817,360.040 78.317,359.600 78.000 C 359.160 77.683,358.800 77.212,358.800 76.954 C 358.800 76.697,358.530 76.382,358.200 76.255 C 357.870 76.129,357.600 75.820,357.600 75.570 C 357.600 75.320,357.150 74.761,356.600 74.329 C 356.050 73.896,355.600 73.313,355.600 73.032 C 355.600 72.752,354.645 71.550,353.478 70.362 C 352.311 69.173,350.900 67.526,350.343 66.702 C 349.785 65.878,349.210 65.323,349.065 65.469 C 348.919 65.614,348.800 65.515,348.800 65.247 C 348.800 64.980,347.495 63.511,345.900 61.983 C 342.289 58.523,341.477 57.711,338.017 54.100 C 336.489 52.505,335.020 51.200,334.753 51.200 C 334.485 51.200,334.386 51.081,334.531 50.935 C 334.677 50.790,334.122 50.215,333.298 49.657 C 332.474 49.100,330.827 47.689,329.638 46.522 C 328.450 45.355,327.248 44.400,326.968 44.400 C 326.687 44.400,326.104 43.950,325.671 43.400 C 325.239 42.850,324.680 42.400,324.430 42.400 C 324.180 42.400,323.871 42.130,323.745 41.800 C 323.618 41.470,323.144 41.200,322.691 41.200 C 322.237 41.200,321.978 41.089,322.114 40.952 C 322.424 40.642,321.415 39.600,320.805 39.600 C 320.556 39.600,320.464 39.420,320.600 39.200 C 320.736 38.980,320.477 38.800,320.024 38.800 C 319.571 38.800,319.200 38.620,319.200 38.400 C 319.200 38.180,318.930 38.000,318.600 38.000 C 318.270 38.000,318.000 37.820,318.000 37.600 C 318.000 37.380,317.719 37.200,317.376 37.200 C 317.033 37.200,316.864 37.020,317.000 36.800 C 317.136 36.580,316.967 36.400,316.624 36.400 C 316.281 36.400,316.000 36.220,316.000 36.000 C 316.000 35.780,315.775 35.600,315.500 35.600 C 315.225 35.599,314.483 35.154,313.851 34.611 C 313.219 34.067,312.364 33.516,311.951 33.384 C 311.538 33.253,311.200 32.978,311.200 32.773 C 311.200 32.568,310.930 32.400,310.600 32.400 C 310.270 32.400,310.000 32.220,310.000 32.000 C 310.000 31.780,309.796 31.600,309.547 31.600 C 309.298 31.600,308.803 31.271,308.447 30.870 C 308.091 30.468,307.215 29.884,306.500 29.572 C 305.785 29.260,305.200 28.869,305.200 28.702 C 305.200 28.536,304.930 28.400,304.600 28.400 C 304.270 28.400,304.000 28.220,304.000 28.000 C 304.000 27.780,303.730 27.600,303.400 27.600 C 303.070 27.600,302.800 27.426,302.800 27.213 C 302.800 26.999,302.575 26.910,302.300 27.015 C 302.025 27.119,301.282 26.757,300.648 26.211 C 300.014 25.664,299.339 25.314,299.148 25.432 C 298.957 25.550,298.800 25.457,298.800 25.224 C 298.800 24.991,298.522 24.800,298.183 24.800 C 297.844 24.800,297.180 24.440,296.708 24.000 C 295.927 23.272,295.159 23.008,294.270 23.163 C 294.089 23.194,294.055 23.035,294.194 22.810 C 294.408 22.463,293.938 22.316,292.970 22.426 C 292.843 22.441,292.417 22.081,292.023 21.626 C 291.629 21.172,290.956 20.800,290.529 20.800 C 290.101 20.800,289.364 20.440,288.892 20.000 C 288.420 19.560,287.882 19.200,287.696 19.200 C 287.103 19.200,285.206 18.211,285.203 17.900 C 285.201 17.735,284.694 17.600,284.075 17.600 C 283.457 17.600,282.564 17.240,282.092 16.800 C 281.620 16.360,280.866 16.000,280.417 16.000 C 279.968 16.000,279.600 15.820,279.600 15.600 C 279.600 15.380,279.150 15.200,278.600 15.200 C 278.050 15.200,277.600 15.020,277.600 14.800 C 277.600 14.580,277.240 14.400,276.800 14.400 C 276.360 14.400,276.000 14.209,276.000 13.976 C 276.000 13.743,275.852 13.644,275.671 13.756 C 275.491 13.868,274.840 13.698,274.226 13.380 C 273.611 13.061,272.859 12.800,272.554 12.800 C 272.249 12.800,272.000 12.659,272.000 12.487 C 272.000 12.315,271.145 11.929,270.100 11.629 C 269.055 11.329,268.016 10.941,267.790 10.768 C 267.565 10.594,266.935 10.390,266.390 10.316 C 265.846 10.241,265.175 10.039,264.900 9.866 C 264.625 9.694,264.400 9.658,264.400 9.787 C 264.400 9.915,263.860 9.741,263.200 9.400 C 262.540 9.059,262.000 8.910,262.000 9.070 C 262.000 9.229,261.784 9.144,261.520 8.880 C 261.256 8.616,260.684 8.400,260.248 8.400 C 259.396 8.400,257.033 7.720,255.905 7.151 C 255.523 6.958,254.658 6.800,253.982 6.800 C 253.264 6.800,252.856 6.634,253.000 6.400 C 253.146 6.163,252.693 6.000,251.890 6.000 C 251.144 6.000,250.398 5.865,250.233 5.700 C 249.894 5.361,249.690 5.320,247.976 5.250 C 247.303 5.223,246.844 5.053,246.955 4.874 C 247.065 4.694,246.315 4.504,245.287 4.450 C 244.260 4.397,243.324 4.225,243.209 4.068 C 243.094 3.911,242.370 3.726,241.600 3.658 C 240.830 3.589,240.029 3.368,239.820 3.166 C 239.611 2.965,238.612 2.800,237.600 2.800 C 236.588 2.800,235.518 2.575,235.221 2.300 C 234.784 1.894,234.742 1.912,235.000 2.400 C 235.258 2.888,235.216 2.906,234.779 2.500 C 234.482 2.225,233.466 2.000,232.520 2.000 C 231.574 2.000,230.800 1.840,230.800 1.644 C 230.800 1.448,229.506 1.268,227.924 1.244 C 226.342 1.220,224.941 1.028,224.811 0.818 C 224.682 0.608,224.221 0.430,223.788 0.423 C 206.495 0.121,195.561 0.108,196.200 0.390 C 196.855 0.680,196.877 0.749,196.324 0.772 C 195.952 0.787,195.536 0.620,195.400 0.400 C 195.091 -0.099,193.326 -0.127,193.023 0.363 " stroke="none" fill="#04b8fc" fill-rule="evenodd"></path><path id="path2" d="M95.093 28.614 C 94.272 29.172,93.600 29.725,93.600 29.842 C 93.600 29.959,94.095 29.710,94.700 29.288 C 95.305 28.867,96.160 28.320,96.600 28.073 C 97.040 27.826,97.217 27.619,96.993 27.612 C 96.769 27.605,95.914 28.056,95.093 28.614 M70.594 46.115 C 70.178 46.611,70.121 48.254,70.506 48.639 C 70.624 48.757,70.839 48.661,70.984 48.427 C 71.129 48.192,71.073 48.000,70.861 48.000 C 70.649 48.000,70.569 47.642,70.683 47.204 C 70.797 46.767,71.048 46.506,71.241 46.625 C 71.433 46.744,71.484 46.562,71.353 46.221 C 71.073 45.493,71.111 45.498,70.594 46.115 M68.912 47.812 C 68.569 48.184,68.555 48.385,68.865 48.488 C 69.141 48.580,69.050 48.893,68.625 49.318 C 68.028 49.915,68.021 50.000,68.571 50.000 C 68.917 50.000,69.200 49.745,69.200 49.433 C 69.200 49.122,69.409 48.797,69.664 48.712 C 69.969 48.610,70.003 48.339,69.764 47.920 C 69.464 47.394,69.315 47.375,68.912 47.812 M66.676 49.374 C 66.219 49.721,66.108 50.020,66.376 50.185 C 66.609 50.329,66.800 50.246,66.800 50.000 C 66.800 49.754,66.961 49.652,67.158 49.774 C 67.355 49.896,67.619 49.726,67.746 49.398 C 68.029 48.660,67.630 48.651,66.676 49.374 M65.153 50.900 C 65.127 51.175,65.131 51.548,65.163 51.730 C 65.194 51.911,65.035 51.945,64.810 51.806 C 64.584 51.667,64.400 51.773,64.400 52.043 C 64.400 52.313,64.289 52.422,64.152 52.286 C 63.751 51.884,62.722 53.150,63.036 53.659 C 63.216 53.949,63.149 54.016,62.859 53.836 C 62.295 53.488,61.200 54.501,61.200 55.371 C 61.200 55.739,60.858 56.000,60.376 56.000 C 59.923 56.000,59.664 56.180,59.800 56.400 C 59.936 56.620,59.779 56.800,59.451 56.800 C 59.122 56.800,58.743 57.151,58.606 57.580 C 58.470 58.008,58.008 58.470,57.580 58.606 C 57.151 58.743,56.800 59.122,56.800 59.451 C 56.800 59.779,56.620 59.936,56.400 59.800 C 56.180 59.664,56.000 59.839,56.000 60.189 C 56.000 60.539,55.689 60.944,55.309 61.090 C 54.364 61.453,51.996 63.863,52.293 64.160 C 52.425 64.292,52.313 64.400,52.043 64.400 C 51.773 64.400,51.667 64.584,51.806 64.810 C 51.945 65.035,51.911 65.194,51.730 65.163 C 50.969 65.030,50.400 65.228,50.400 65.624 C 50.400 65.857,50.608 65.919,50.862 65.762 C 51.157 65.579,51.215 65.653,51.021 65.965 C 50.855 66.234,50.447 66.350,50.115 66.223 C 49.696 66.062,49.582 66.175,49.741 66.591 C 49.875 66.939,49.768 67.150,49.486 67.095 C 49.219 67.043,49.025 67.315,49.056 67.700 C 49.086 68.085,48.938 68.400,48.727 68.400 C 48.169 68.400,47.195 69.461,47.486 69.752 C 47.622 69.889,47.414 70.000,47.024 70.000 C 46.569 70.000,46.394 70.208,46.537 70.580 C 46.688 70.972,46.567 71.086,46.163 70.931 C 45.792 70.788,45.611 70.908,45.684 71.251 C 45.748 71.553,45.552 71.747,45.249 71.683 C 44.872 71.603,44.766 71.825,44.912 72.384 C 45.029 72.833,44.994 73.120,44.834 73.021 C 44.458 72.789,43.190 74.257,43.500 74.566 C 43.628 74.695,43.423 74.800,43.043 74.800 C 42.663 74.800,42.469 74.988,42.611 75.218 C 42.934 75.740,42.039 76.871,41.545 76.566 C 41.344 76.442,41.206 76.489,41.237 76.670 C 41.360 77.374,41.188 78.122,40.958 77.891 C 40.663 77.596,38.750 79.445,38.892 79.886 C 39.049 80.370,37.763 82.030,37.464 81.731 C 37.319 81.586,37.200 81.767,37.200 82.133 C 37.200 82.500,37.020 82.800,36.800 82.800 C 36.580 82.800,36.400 83.190,36.400 83.667 C 36.400 84.143,36.289 84.422,36.152 84.286 C 35.797 83.931,34.800 85.026,34.800 85.771 C 34.800 86.117,34.620 86.400,34.400 86.400 C 34.180 86.400,34.000 86.681,34.000 87.024 C 34.000 87.367,33.820 87.536,33.600 87.400 C 33.380 87.264,33.200 87.484,33.200 87.888 C 33.200 88.293,32.840 88.883,32.400 89.200 C 31.960 89.517,31.594 90.052,31.587 90.388 C 31.571 91.186,30.596 92.463,30.260 92.127 C 30.117 91.984,30.000 92.168,30.000 92.537 C 30.000 92.905,29.460 93.952,28.800 94.863 C 28.140 95.775,27.600 96.774,27.600 97.084 C 27.600 97.394,27.420 97.536,27.200 97.400 C 26.980 97.264,26.800 97.523,26.800 97.976 C 26.800 98.429,26.599 98.800,26.353 98.800 C 26.108 98.800,25.998 99.148,26.109 99.574 C 26.229 100.033,26.075 100.439,25.730 100.571 C 25.411 100.694,25.261 100.976,25.398 101.197 C 25.535 101.419,25.457 101.600,25.224 101.600 C 24.991 101.600,24.800 101.788,24.800 102.017 C 24.800 102.246,24.440 102.820,24.000 103.292 C 23.560 103.764,23.200 104.387,23.200 104.675 C 23.200 104.964,23.020 105.200,22.800 105.200 C 22.580 105.200,22.400 105.560,22.400 106.000 C 22.400 106.440,22.220 106.800,22.000 106.800 C 21.780 106.800,21.600 107.216,21.600 107.725 C 21.600 108.233,21.285 108.998,20.900 109.425 C 20.003 110.419,18.400 113.505,18.400 114.238 C 18.400 114.547,18.258 114.800,18.085 114.800 C 17.912 114.800,17.740 115.202,17.703 115.694 C 17.666 116.186,17.448 116.651,17.218 116.727 C 16.988 116.804,16.800 117.124,16.800 117.439 C 16.800 118.108,15.976 119.671,15.400 120.094 C 15.180 120.256,15.156 120.391,15.346 120.394 C 15.536 120.397,15.401 120.844,15.046 121.386 C 14.691 121.928,14.400 122.643,14.400 122.974 C 14.400 123.305,14.040 124.217,13.600 125.000 C 13.160 125.783,12.800 126.779,12.800 127.212 C 12.800 127.645,12.590 128.000,12.333 128.000 C 12.077 128.000,11.980 128.114,12.119 128.253 C 12.258 128.392,12.162 128.887,11.905 129.353 C 11.432 130.211,11.188 130.993,11.110 131.900 C 11.086 132.175,10.897 132.400,10.691 132.400 C 10.484 132.400,10.410 132.648,10.526 132.951 C 10.642 133.254,10.527 133.731,10.269 134.010 C 9.902 134.406,9.931 134.454,10.400 134.229 C 10.730 134.070,10.662 134.215,10.250 134.551 C 9.821 134.900,9.602 135.427,9.737 135.781 C 9.868 136.121,9.790 136.400,9.564 136.400 C 9.338 136.400,9.264 136.580,9.400 136.800 C 9.536 137.020,9.487 137.200,9.290 137.200 C 9.094 137.200,8.903 137.425,8.866 137.700 C 8.543 140.102,8.258 141.200,7.956 141.200 C 7.760 141.200,7.600 141.830,7.600 142.600 C 7.600 143.370,7.458 144.000,7.285 144.000 C 7.112 144.000,6.926 144.585,6.872 145.300 C 6.819 146.015,6.600 146.660,6.387 146.733 C 6.174 146.807,6.000 147.482,6.000 148.233 C 6.000 148.985,5.820 149.600,5.600 149.600 C 5.380 149.600,5.200 150.320,5.200 151.200 C 5.200 152.080,5.020 152.800,4.800 152.800 C 4.580 152.800,4.400 153.700,4.400 154.800 C 4.400 155.900,4.220 156.800,4.000 156.800 C 3.780 156.800,3.600 157.520,3.600 158.400 C 3.600 159.280,3.420 160.000,3.200 160.000 C 2.980 160.000,2.800 160.990,2.800 162.200 C 2.800 163.410,2.636 164.400,2.436 164.400 C 2.089 164.400,1.864 166.008,1.358 172.100 C 1.235 173.585,0.991 174.800,0.817 174.800 C 0.338 174.800,0.200 180.423,0.200 200.000 C 0.200 219.577,0.338 225.200,0.817 225.200 C 0.991 225.200,1.235 226.415,1.358 227.900 C 1.864 233.992,2.089 235.600,2.436 235.600 C 2.636 235.600,2.800 236.590,2.800 237.800 C 2.800 239.010,2.980 240.000,3.200 240.000 C 3.420 240.000,3.600 240.720,3.600 241.600 C 3.600 242.480,3.780 243.200,4.000 243.200 C 4.220 243.200,4.400 244.100,4.400 245.200 C 4.400 246.300,4.580 247.200,4.800 247.200 C 5.020 247.200,5.200 247.920,5.200 248.800 C 5.200 249.680,5.380 250.400,5.600 250.400 C 5.820 250.400,6.000 251.015,6.000 251.767 C 6.000 252.518,6.174 253.193,6.387 253.267 C 6.600 253.340,6.819 253.985,6.872 254.700 C 6.926 255.415,7.112 256.000,7.285 256.000 C 7.458 256.000,7.600 256.630,7.600 257.400 C 7.600 258.170,7.760 258.800,7.956 258.800 C 8.258 258.800,8.543 259.898,8.866 262.300 C 8.903 262.575,9.094 262.800,9.290 262.800 C 9.487 262.800,9.536 262.980,9.400 263.200 C 9.264 263.420,9.338 263.600,9.564 263.600 C 9.790 263.600,9.868 263.879,9.737 264.219 C 9.602 264.573,9.821 265.100,10.250 265.449 C 10.662 265.785,10.730 265.930,10.400 265.771 C 9.931 265.546,9.902 265.594,10.269 265.990 C 10.527 266.269,10.642 266.746,10.526 267.049 C 10.410 267.352,10.484 267.600,10.691 267.600 C 10.897 267.600,11.086 267.825,11.110 268.100 C 11.191 269.038,11.438 269.799,11.987 270.800 C 12.288 271.350,12.510 271.843,12.479 271.896 C 12.368 272.082,12.876 273.420,13.633 274.938 C 14.055 275.784,14.400 276.735,14.400 277.052 C 14.400 277.369,14.691 278.072,15.046 278.614 C 15.401 279.156,15.536 279.603,15.346 279.606 C 15.156 279.609,15.180 279.744,15.400 279.906 C 15.976 280.329,16.800 281.892,16.800 282.561 C 16.800 282.876,16.988 283.196,17.218 283.273 C 17.448 283.349,17.666 283.814,17.703 284.306 C 17.740 284.798,17.912 285.200,18.085 285.200 C 18.258 285.200,18.400 285.453,18.400 285.762 C 18.400 286.495,20.003 289.581,20.900 290.575 C 21.285 291.002,21.600 291.767,21.600 292.275 C 21.600 292.784,21.780 293.200,22.000 293.200 C 22.220 293.200,22.400 293.560,22.400 294.000 C 22.400 294.440,22.580 294.800,22.800 294.800 C 23.020 294.800,23.200 295.036,23.200 295.325 C 23.200 295.613,23.560 296.236,24.000 296.708 C 24.440 297.180,24.800 297.754,24.800 297.983 C 24.800 298.212,24.991 298.400,25.224 298.400 C 25.457 298.400,25.535 298.581,25.398 298.803 C 25.261 299.024,25.411 299.306,25.730 299.429 C 26.075 299.561,26.229 299.967,26.109 300.426 C 25.998 300.852,26.108 301.200,26.353 301.200 C 26.599 301.200,26.800 301.571,26.800 302.024 C 26.800 302.477,26.980 302.736,27.200 302.600 C 27.420 302.464,27.600 302.606,27.600 302.916 C 27.600 303.226,28.140 304.225,28.800 305.137 C 29.460 306.048,30.000 307.095,30.000 307.463 C 30.000 307.832,30.117 308.016,30.260 307.873 C 30.596 307.537,31.571 308.814,31.587 309.612 C 31.594 309.948,31.960 310.483,32.400 310.800 C 32.840 311.117,33.200 311.707,33.200 312.112 C 33.200 312.516,33.380 312.736,33.600 312.600 C 33.820 312.464,34.000 312.633,34.000 312.976 C 34.000 313.319,34.180 313.600,34.400 313.600 C 34.620 313.600,34.800 313.883,34.800 314.229 C 34.800 314.974,35.797 316.069,36.152 315.714 C 36.289 315.578,36.400 315.857,36.400 316.333 C 36.400 316.810,36.580 317.200,36.800 317.200 C 37.020 317.200,37.200 317.500,37.200 317.867 C 37.200 318.233,37.319 318.414,37.464 318.269 C 37.769 317.964,39.047 319.636,38.887 320.130 C 38.828 320.312,39.369 321.014,40.090 321.691 C 40.810 322.368,41.351 323.088,41.290 323.291 C 41.230 323.494,41.344 323.558,41.545 323.434 C 42.039 323.129,42.934 324.260,42.611 324.782 C 42.469 325.012,42.663 325.200,43.043 325.200 C 43.423 325.200,43.628 325.305,43.500 325.434 C 43.190 325.743,44.458 327.211,44.834 326.979 C 44.994 326.880,45.029 327.167,44.912 327.616 C 44.766 328.175,44.872 328.397,45.249 328.317 C 45.552 328.253,45.748 328.447,45.684 328.749 C 45.611 329.092,45.792 329.212,46.163 329.069 C 46.567 328.914,46.688 329.028,46.537 329.420 C 46.394 329.792,46.569 330.000,47.024 330.000 C 47.414 330.000,47.622 330.111,47.486 330.248 C 47.195 330.539,48.169 331.600,48.727 331.600 C 48.938 331.600,49.086 331.915,49.056 332.300 C 49.025 332.685,49.219 332.957,49.486 332.905 C 49.768 332.850,49.875 333.061,49.741 333.409 C 49.582 333.825,49.696 333.938,50.115 333.777 C 50.447 333.650,50.855 333.766,51.021 334.035 C 51.215 334.347,51.157 334.421,50.862 334.238 C 50.608 334.081,50.400 334.143,50.400 334.376 C 50.400 334.772,50.969 334.970,51.730 334.837 C 51.911 334.806,51.945 334.965,51.806 335.190 C 51.667 335.416,51.773 335.600,52.043 335.600 C 52.313 335.600,52.425 335.708,52.293 335.840 C 51.996 336.137,54.364 338.547,55.309 338.910 C 55.689 339.056,56.000 339.461,56.000 339.811 C 56.000 340.161,56.180 340.336,56.400 340.200 C 56.620 340.064,56.800 340.221,56.800 340.549 C 56.800 340.878,57.151 341.257,57.580 341.394 C 58.008 341.530,58.470 341.992,58.606 342.420 C 58.743 342.849,59.122 343.200,59.451 343.200 C 59.779 343.200,59.936 343.380,59.800 343.600 C 59.664 343.820,59.923 344.000,60.376 344.000 C 60.858 344.000,61.200 344.261,61.200 344.629 C 61.200 345.499,62.295 346.512,62.859 346.164 C 63.149 345.984,63.216 346.051,63.036 346.341 C 62.722 346.850,63.751 348.116,64.152 347.714 C 64.289 347.578,64.400 347.687,64.400 347.957 C 64.400 348.227,64.584 348.333,64.810 348.194 C 65.035 348.055,65.194 348.089,65.163 348.270 C 65.030 349.031,65.228 349.600,65.624 349.600 C 65.857 349.600,65.936 349.420,65.800 349.200 C 65.483 348.687,65.850 348.692,66.826 349.214 C 67.372 349.506,67.600 349.499,67.600 349.190 C 67.600 348.950,67.735 348.836,67.900 348.938 C 68.065 349.040,68.154 313.972,68.098 271.009 L 67.996 192.895 72.898 187.950 L 77.800 183.006 78.029 235.803 C 78.230 281.978,78.338 288.976,78.895 291.600 C 80.974 301.391,85.866 310.352,92.657 316.807 C 95.674 319.674,99.920 323.014,100.196 322.737 C 100.293 322.640,99.254 321.760,97.886 320.780 C 91.445 316.168,82.000 303.721,82.000 299.844 C 82.000 299.516,81.841 299.149,81.648 299.030 C 81.454 298.910,81.197 298.404,81.076 297.906 C 80.955 297.408,80.658 296.280,80.417 295.400 C 80.176 294.520,79.771 292.900,79.518 291.800 C 79.188 290.370,78.992 274.354,78.828 235.600 L 78.600 181.400 73.200 186.657 C 66.654 193.029,65.392 193.764,61.000 193.763 C 51.944 193.761,46.853 185.429,50.675 176.865 C 51.031 176.067,70.381 156.426,98.753 128.065 C 124.868 101.959,137.677 89.082,127.218 99.448 C 102.967 123.483,81.764 144.354,76.438 149.432 C 74.149 151.614,71.313 154.350,70.135 155.512 L 67.994 157.623 68.097 104.250 C 68.154 74.894,68.065 50.960,67.900 51.062 C 67.735 51.164,67.600 51.050,67.600 50.810 C 67.600 50.501,67.372 50.494,66.826 50.786 C 65.850 51.308,65.483 51.313,65.800 50.800 C 65.936 50.580,65.857 50.400,65.624 50.400 C 65.391 50.400,65.179 50.625,65.153 50.900 M154.185 72.500 L 152.200 74.600 154.300 72.615 C 155.455 71.523,156.400 70.578,156.400 70.515 C 156.400 70.217,156.029 70.549,154.185 72.500 M146.181 113.700 L 144.600 115.400 146.300 113.819 C 147.881 112.348,148.184 112.000,147.881 112.000 C 147.816 112.000,147.051 112.765,146.181 113.700 M119.698 140.102 C 110.184 149.618,102.400 157.501,102.400 157.621 C 102.400 157.741,110.185 150.035,119.700 140.498 C 139.530 120.620,137.379 122.800,137.165 122.800 C 137.072 122.800,129.212 130.586,119.698 140.102 M102.428 286.033 C 102.444 286.785,102.620 287.760,102.820 288.200 C 103.065 288.739,103.105 288.346,102.941 287.000 C 102.651 284.619,102.389 284.124,102.428 286.033 M108.400 298.748 C 108.400 298.920,108.850 299.483,109.400 300.000 C 109.950 300.517,110.400 300.826,110.400 300.688 C 110.400 300.550,109.950 299.986,109.400 299.436 C 108.850 298.886,108.400 298.577,108.400 298.748 M111.295 301.483 C 111.672 301.901,112.750 302.666,113.691 303.184 C 115.868 304.383,115.583 304.066,112.804 302.200 C 111.596 301.389,110.917 301.066,111.295 301.483 M115.600 304.231 C 115.600 304.501,117.678 305.256,117.876 305.057 C 117.967 304.967,117.492 304.701,116.820 304.467 C 116.149 304.233,115.600 304.127,115.600 304.231 M121.900 306.282 C 122.395 306.378,123.205 306.378,123.700 306.282 C 124.195 306.187,123.790 306.109,122.800 306.109 C 121.810 306.109,121.405 306.187,121.900 306.282 M140.800 306.400 L 125.400 306.614 140.676 306.707 C 150.531 306.767,156.041 306.658,156.200 306.400 C 156.336 306.180,156.392 306.042,156.324 306.093 C 156.256 306.144,149.270 306.282,140.800 306.400 M102.165 323.943 C 102.435 324.379,106.026 326.107,106.233 325.901 C 106.312 325.821,105.379 325.266,104.159 324.667 C 102.938 324.069,102.041 323.743,102.165 323.943 M106.800 326.214 C 106.800 326.493,109.706 327.631,110.091 327.503 C 110.282 327.439,109.620 327.084,108.619 326.713 C 107.619 326.342,106.800 326.117,106.800 326.214 M111.633 328.144 C 111.725 328.223,112.340 328.408,113.000 328.556 C 113.876 328.752,114.038 328.715,113.600 328.418 C 113.060 328.053,111.232 327.798,111.633 328.144 M119.505 329.883 C 120.002 329.979,120.722 329.975,121.105 329.875 C 121.487 329.775,121.080 329.696,120.200 329.701 C 119.320 329.705,119.007 329.787,119.505 329.883 M134.728 330.300 C 140.959 330.362,151.039 330.362,157.128 330.300 C 163.218 330.238,158.120 330.187,145.800 330.187 C 133.480 330.187,128.498 330.238,134.728 330.300 M66.298 349.835 C 66.141 349.992,66.325 350.358,66.706 350.648 C 67.631 351.350,68.026 351.333,67.746 350.602 C 67.619 350.274,67.370 350.095,67.192 350.205 C 67.014 350.315,66.804 350.213,66.726 349.977 C 66.647 349.742,66.455 349.678,66.298 349.835 M68.601 350.658 C 68.980 351.037,69.096 351.419,68.874 351.558 C 68.643 351.703,68.697 351.994,69.008 352.282 C 69.418 352.662,69.583 352.622,69.787 352.090 C 69.929 351.719,69.855 351.352,69.623 351.274 C 69.390 351.197,69.200 350.878,69.200 350.567 C 69.200 350.255,68.917 350.000,68.571 350.000 C 68.012 350.000,68.015 350.072,68.601 350.658 M70.367 351.476 C 70.348 351.654,70.291 352.170,70.239 352.623 C 70.116 353.697,71.029 354.624,71.359 353.761 C 71.487 353.430,71.433 353.256,71.241 353.375 C 71.048 353.494,70.800 353.242,70.688 352.815 C 70.576 352.388,70.682 351.973,70.923 351.892 C 71.223 351.792,71.210 351.653,70.880 351.450 C 70.616 351.286,70.385 351.298,70.367 351.476 M93.600 370.210 C 93.600 370.493,96.799 372.535,96.966 372.359 C 97.048 372.271,96.325 371.712,95.358 371.115 C 94.391 370.519,93.600 370.111,93.600 370.210 " stroke="none" fill="#04e7fc" fill-rule="evenodd"></path><path id="path3" d="M136.364 9.631 C 135.953 9.891,136.099 9.989,136.900 9.994 C 138.094 10.001,138.310 9.804,137.464 9.480 C 137.169 9.367,136.674 9.435,136.364 9.631 M122.400 14.885 C 122.400 15.058,122.152 15.200,121.849 15.200 C 121.546 15.200,121.076 15.468,120.804 15.796 C 120.532 16.123,120.150 16.293,119.955 16.172 C 119.760 16.051,119.600 16.202,119.600 16.507 C 119.600 16.895,119.241 17.009,118.405 16.886 C 117.552 16.761,117.137 16.899,116.957 17.367 C 116.787 17.811,116.446 17.941,115.903 17.769 C 115.369 17.600,115.192 17.663,115.374 17.957 C 115.618 18.353,115.126 18.578,114.300 18.447 C 114.135 18.421,114.000 18.610,114.000 18.867 C 114.000 19.123,113.880 19.213,113.732 19.066 C 113.585 18.919,113.180 19.056,112.832 19.371 C 112.185 19.956,112.057 20.000,110.976 20.000 C 110.633 20.000,110.464 20.180,110.600 20.400 C 110.819 20.755,110.543 20.873,109.745 20.766 C 109.604 20.747,109.379 20.882,109.245 21.066 C 108.856 21.597,107.268 22.400,106.605 22.400 C 106.272 22.400,106.000 22.546,106.000 22.725 C 106.000 22.904,105.370 23.298,104.600 23.600 C 103.830 23.902,103.200 24.296,103.200 24.475 C 103.200 24.654,102.874 24.800,102.475 24.800 C 102.077 24.800,101.395 25.115,100.960 25.500 C 100.525 25.885,99.907 26.259,99.588 26.332 C 99.269 26.405,98.914 26.615,98.800 26.800 C 98.686 26.985,98.324 27.195,97.996 27.268 C 97.668 27.341,97.085 27.743,96.700 28.161 C 96.315 28.580,96.000 28.793,96.000 28.634 C 96.000 28.475,95.477 28.718,94.838 29.173 C 94.199 29.628,93.479 30.000,93.238 30.000 C 92.997 30.000,92.800 30.180,92.800 30.400 C 92.800 30.620,92.429 30.800,91.976 30.800 C 91.523 30.800,91.264 30.980,91.400 31.200 C 91.536 31.420,91.367 31.600,91.024 31.600 C 90.681 31.600,90.400 31.739,90.400 31.909 C 90.400 32.079,89.725 32.567,88.900 32.994 C 88.075 33.421,87.094 34.047,86.719 34.385 C 85.339 35.632,84.881 35.948,84.707 35.774 C 84.609 35.675,84.202 35.956,83.802 36.398 C 83.403 36.839,82.834 37.200,82.538 37.200 C 82.242 37.200,82.000 37.380,82.000 37.600 C 82.000 37.820,81.818 38.000,81.597 38.000 C 81.204 38.000,79.605 39.272,77.701 41.100 C 77.186 41.595,76.581 42.000,76.358 42.000 C 76.135 42.000,76.064 42.180,76.200 42.400 C 76.336 42.620,76.212 42.800,75.924 42.801 C 75.636 42.801,74.770 43.341,74.000 44.000 C 73.230 44.659,72.375 45.199,72.100 45.199 C 71.638 45.200,71.424 45.730,71.563 46.530 C 71.594 46.711,71.456 46.758,71.255 46.634 C 71.055 46.510,70.797 46.767,70.683 47.204 C 70.569 47.642,70.649 48.000,70.861 48.000 C 71.073 48.000,71.124 48.199,70.974 48.443 C 70.587 49.069,70.006 48.051,70.305 47.271 C 70.459 46.869,70.375 46.769,70.052 46.968 C 69.785 47.133,69.677 47.612,69.811 48.034 C 69.947 48.462,69.866 48.800,69.627 48.800 C 69.392 48.800,69.200 49.070,69.200 49.400 C 69.200 49.730,68.917 50.000,68.571 50.000 C 68.008 50.000,68.010 49.933,68.590 49.352 C 68.947 48.996,69.124 48.591,68.985 48.452 C 68.845 48.314,68.387 48.625,67.966 49.144 C 67.545 49.664,67.200 49.980,67.200 49.848 C 67.200 49.716,66.845 49.911,66.412 50.283 C 65.440 51.115,65.641 51.420,66.766 50.818 C 67.364 50.498,67.600 50.495,67.600 50.810 C 67.600 51.050,67.735 51.164,67.900 51.062 C 68.065 50.960,68.154 74.894,68.097 104.250 L 67.994 157.623 70.135 155.512 C 71.313 154.350,74.149 151.614,76.438 149.431 C 87.122 139.241,150.907 75.974,150.703 75.769 C 150.644 75.711,146.627 79.564,141.777 84.331 C 136.926 89.099,130.672 95.201,127.879 97.891 L 122.800 102.781 122.767 59.891 C 122.748 36.301,122.689 16.603,122.635 16.117 C 122.532 15.199,123.358 14.603,124.098 15.061 C 124.340 15.210,124.407 15.135,124.254 14.887 C 123.951 14.398,122.400 14.396,122.400 14.885 M199.507 41.090 C 200.226 41.179,201.306 41.177,201.907 41.086 C 202.508 40.995,201.920 40.922,200.600 40.924 C 199.280 40.926,198.788 41.001,199.507 41.090 M205.233 41.343 C 205.325 41.422,206.120 41.597,207.000 41.732 C 208.090 41.899,208.409 41.855,208.000 41.595 C 207.453 41.246,204.845 41.009,205.233 41.343 M172.462 54.037 C 169.746 56.688,167.595 58.928,167.682 59.015 C 167.768 59.102,170.078 56.929,172.814 54.186 C 175.550 51.444,177.701 49.204,177.594 49.208 C 177.487 49.213,175.178 51.385,172.462 54.037 M245.200 71.400 C 250.807 77.010,255.484 81.600,255.594 81.600 C 255.704 81.600,251.207 77.010,245.600 71.400 C 239.993 65.790,235.316 61.200,235.206 61.200 C 235.096 61.200,239.593 65.790,245.200 71.400 M163.002 63.198 C 162.603 63.639,162.407 64.000,162.567 64.000 C 162.988 64.000,164.128 62.795,163.912 62.579 C 163.811 62.478,163.402 62.756,163.002 63.198 M147.696 112.508 L 102.400 157.815 102.400 220.731 C 102.400 282.549,102.508 288.510,103.656 289.780 C 103.845 289.989,104.000 290.459,104.000 290.824 C 104.000 295.960,115.952 306.000,122.066 306.000 C 122.776 306.000,122.800 303.221,122.800 222.251 L 122.800 138.501 129.700 131.387 C 134.818 126.109,168.804 91.827,193.167 67.367 C 193.258 67.275,193.256 67.200,193.163 67.200 C 193.069 67.200,172.609 87.588,147.696 112.508 M217.400 76.800 C 222.677 82.080,227.084 86.400,227.194 86.400 C 227.304 86.400,223.077 82.080,217.800 76.800 C 212.523 71.520,208.116 67.200,208.006 67.200 C 207.896 67.200,212.123 71.520,217.400 76.800 M259.800 86.000 C 261.550 87.760,263.071 89.200,263.181 89.200 C 263.291 89.200,261.950 87.760,260.200 86.000 C 258.450 84.240,256.929 82.800,256.819 82.800 C 256.709 82.800,258.050 84.240,259.800 86.000 M266.600 126.400 C 275.838 135.640,283.486 143.200,283.596 143.200 C 283.706 143.200,276.238 135.640,267.000 126.400 C 257.762 117.160,250.114 109.600,250.004 109.600 C 249.894 109.600,257.362 117.160,266.600 126.400 M308.400 135.000 C 313.566 140.170,317.884 144.400,317.994 144.400 C 318.104 144.400,313.966 140.170,308.800 135.000 C 303.634 129.830,299.316 125.600,299.206 125.600 C 299.096 125.600,303.234 129.830,308.400 135.000 M72.898 187.950 L 67.996 192.895 68.098 271.009 C 68.154 313.972,68.065 349.040,67.900 348.938 C 67.735 348.836,67.600 348.950,67.600 349.190 C 67.600 349.505,67.364 349.502,66.766 349.182 C 65.641 348.580,65.440 348.885,66.412 349.717 C 66.845 350.089,67.200 350.284,67.200 350.152 C 67.200 350.020,67.545 350.336,67.966 350.856 C 68.387 351.375,68.845 351.686,68.985 351.548 C 69.124 351.409,68.947 351.004,68.590 350.648 C 68.010 350.067,68.008 350.000,68.571 350.000 C 68.917 350.000,69.200 350.270,69.200 350.600 C 69.200 350.930,69.392 351.200,69.627 351.200 C 69.866 351.200,69.947 351.538,69.811 351.966 C 69.677 352.388,69.785 352.867,70.052 353.032 C 70.375 353.231,70.459 353.131,70.305 352.729 C 70.006 351.949,70.587 350.931,70.974 351.557 C 71.124 351.801,71.073 352.000,70.861 352.000 C 70.649 352.000,70.569 352.358,70.683 352.796 C 70.797 353.233,71.055 353.490,71.255 353.366 C 71.456 353.242,71.594 353.289,71.563 353.470 C 71.424 354.270,71.638 354.800,72.100 354.801 C 72.375 354.801,73.230 355.341,74.000 356.000 C 74.770 356.659,75.636 357.199,75.924 357.199 C 76.212 357.200,76.336 357.380,76.200 357.600 C 76.064 357.820,76.135 358.000,76.358 358.000 C 76.581 358.000,77.186 358.405,77.701 358.900 C 79.605 360.728,81.204 362.000,81.597 362.000 C 81.818 362.000,82.000 362.180,82.000 362.400 C 82.000 362.620,82.242 362.800,82.538 362.800 C 82.834 362.800,83.403 363.161,83.802 363.602 C 84.202 364.044,84.609 364.325,84.707 364.226 C 84.881 364.052,85.339 364.368,86.719 365.615 C 87.094 365.953,88.075 366.579,88.900 367.006 C 89.725 367.433,90.400 367.921,90.400 368.091 C 90.400 368.261,90.681 368.400,91.024 368.400 C 91.367 368.400,91.536 368.580,91.400 368.800 C 91.264 369.020,91.523 369.200,91.976 369.200 C 92.429 369.200,92.800 369.380,92.800 369.600 C 92.800 369.820,92.997 370.000,93.238 370.000 C 93.479 370.000,94.199 370.372,94.838 370.827 C 95.477 371.282,96.000 371.525,96.000 371.366 C 96.000 371.207,96.315 371.420,96.700 371.839 C 97.085 372.257,97.668 372.659,97.996 372.732 C 98.324 372.805,98.686 373.015,98.800 373.200 C 98.914 373.385,99.269 373.595,99.588 373.668 C 99.907 373.741,100.525 374.115,100.960 374.500 C 101.395 374.885,102.077 375.200,102.475 375.200 C 102.874 375.200,103.200 375.346,103.200 375.525 C 103.200 375.704,103.830 376.098,104.600 376.400 C 105.370 376.702,106.000 377.096,106.000 377.275 C 106.000 377.454,106.272 377.600,106.605 377.600 C 107.268 377.600,108.856 378.403,109.245 378.934 C 109.379 379.118,109.604 379.253,109.745 379.234 C 110.543 379.127,110.819 379.245,110.600 379.600 C 110.464 379.820,110.633 380.000,110.976 380.000 C 112.057 380.000,112.185 380.044,112.832 380.629 C 113.180 380.944,113.585 381.081,113.732 380.934 C 113.880 380.787,114.000 380.877,114.000 381.133 C 114.000 381.390,114.135 381.579,114.300 381.553 C 115.126 381.422,115.618 381.647,115.374 382.043 C 115.192 382.337,115.369 382.400,115.903 382.231 C 116.446 382.059,116.787 382.189,116.957 382.633 C 117.137 383.101,117.552 383.239,118.405 383.114 C 119.241 382.991,119.600 383.105,119.600 383.493 C 119.600 383.798,119.760 383.949,119.955 383.828 C 120.150 383.707,120.532 383.877,120.804 384.204 C 121.076 384.532,121.546 384.800,121.849 384.800 C 122.152 384.800,122.400 384.942,122.400 385.115 C 122.400 385.604,123.951 385.602,124.254 385.113 C 124.407 384.865,124.340 384.790,124.098 384.939 C 123.358 385.397,122.532 384.801,122.635 383.883 C 122.689 383.397,122.748 371.255,122.767 356.900 L 122.800 330.800 144.300 330.720 L 165.800 330.639 142.600 330.370 C 118.132 330.085,117.431 330.033,111.336 328.056 C 108.576 327.160,104.715 325.505,103.200 324.569 C 102.650 324.229,101.885 323.851,101.500 323.729 C 101.115 323.607,100.800 323.348,100.800 323.153 C 100.800 322.959,100.592 322.800,100.337 322.800 C 99.654 322.800,95.791 319.785,92.657 316.807 C 85.866 310.352,80.974 301.391,78.895 291.600 C 78.338 288.976,78.230 281.978,78.029 235.803 L 77.800 183.006 72.898 187.950 M165.674 198.740 C 164.823 198.979,211.808 198.939,226.600 198.687 C 230.120 198.628,218.060 198.556,199.800 198.529 C 181.540 198.502,166.183 198.597,165.674 198.740 M160.705 201.100 C 159.922 201.705,159.055 202.560,158.780 203.000 C 158.504 203.440,159.161 203.004,160.239 202.032 C 161.318 201.059,162.275 200.204,162.367 200.132 C 162.458 200.059,162.442 200.000,162.331 200.000 C 162.220 200.000,161.488 200.495,160.705 201.100 M156.267 207.867 C 156.120 208.013,156.000 230.151,156.000 257.062 L 156.000 305.991 140.300 306.102 L 124.600 306.214 140.400 306.207 L 156.200 306.200 156.400 257.000 C 156.620 202.807,156.633 207.500,156.267 207.867 M244.493 209.200 C 244.493 209.970,244.575 210.285,244.676 209.900 C 244.776 209.515,244.776 208.885,244.676 208.500 C 244.575 208.115,244.493 208.430,244.493 209.200 M180.185 222.900 C 180.080 223.175,180.041 244.820,180.099 271.000 L 180.203 318.600 180.302 270.693 L 180.400 222.786 200.762 222.893 C 211.961 222.952,221.040 222.865,220.938 222.700 C 220.592 222.140,180.399 222.337,180.185 222.900 M290.575 299.700 L 289.400 301.000 290.700 299.825 C 291.415 299.179,292.000 298.594,292.000 298.525 C 292.000 298.216,291.670 298.488,290.575 299.700 M252.926 306.700 C 257.066 306.765,263.726 306.765,267.726 306.699 C 271.727 306.634,268.340 306.581,260.200 306.581 C 252.060 306.581,248.787 306.634,252.926 306.700 M176.623 326.322 C 174.672 328.571,174.668 328.579,176.355 327.000 C 177.776 325.669,179.147 323.938,178.714 324.022 C 178.651 324.034,177.710 325.069,176.623 326.322 M224.400 326.600 C 225.146 327.370,225.847 328.000,225.957 328.000 C 226.067 328.000,225.546 327.370,224.800 326.600 C 224.054 325.830,223.353 325.200,223.243 325.200 C 223.133 325.200,223.654 325.830,224.400 326.600 M278.100 329.876 C 278.485 329.976,279.115 329.976,279.500 329.876 C 279.885 329.775,279.570 329.693,278.800 329.693 C 278.030 329.693,277.715 329.775,278.100 329.876 M168.500 330.276 C 168.885 330.376,169.515 330.376,169.900 330.276 C 170.285 330.175,169.970 330.093,169.200 330.093 C 168.430 330.093,168.115 330.175,168.500 330.276 M242.700 330.300 C 248.695 330.362,258.505 330.362,264.500 330.300 C 270.495 330.238,265.590 330.187,253.600 330.187 C 241.610 330.187,236.705 330.238,242.700 330.300 M136.000 390.157 C 136.000 390.546,137.127 390.692,137.636 390.369 C 138.047 390.109,137.901 390.011,137.100 390.006 C 136.495 390.003,136.000 390.071,136.000 390.157 " stroke="none" fill="#04d7fc" fill-rule="evenodd"></path><path id="path4" d="M183.042 0.292 C 182.975 0.359,181.363 0.425,179.460 0.439 C 177.557 0.453,176.000 0.602,176.000 0.769 C 176.000 0.937,174.815 1.112,173.368 1.159 C 171.920 1.206,170.312 1.405,169.794 1.602 C 169.276 1.799,168.020 2.004,167.003 2.056 C 165.986 2.109,165.063 2.298,164.953 2.476 C 164.843 2.654,163.863 2.800,162.776 2.800 C 161.689 2.800,160.800 2.962,160.800 3.160 C 160.800 3.358,160.035 3.622,159.100 3.747 C 155.011 4.294,153.982 4.506,153.774 4.842 C 153.652 5.039,152.933 5.200,152.176 5.200 C 151.419 5.200,150.800 5.345,150.800 5.522 C 150.800 5.699,150.035 5.888,149.100 5.942 C 148.165 5.996,147.340 6.211,147.267 6.420 C 147.193 6.629,146.619 6.800,145.990 6.800 C 145.362 6.800,144.736 6.980,144.600 7.200 C 144.464 7.420,143.823 7.600,143.176 7.600 C 142.529 7.600,142.000 7.780,142.000 8.000 C 142.000 8.220,141.595 8.403,141.100 8.406 C 139.678 8.416,136.998 9.456,137.644 9.747 C 137.950 9.886,137.615 9.940,136.900 9.869 C 136.185 9.797,135.600 9.898,135.600 10.093 C 135.600 10.288,135.436 10.346,135.236 10.222 C 135.036 10.099,134.030 10.359,133.000 10.800 C 131.970 11.241,130.964 11.501,130.764 11.378 C 130.564 11.254,130.400 11.403,130.400 11.710 C 130.400 12.044,130.041 12.234,129.500 12.186 C 129.005 12.142,128.321 12.348,127.980 12.643 C 127.639 12.938,126.649 13.331,125.780 13.517 C 124.674 13.754,124.216 14.053,124.254 14.517 C 124.298 15.058,124.162 15.101,123.506 14.749 C 123.015 14.487,122.800 14.476,122.951 14.721 C 123.088 14.942,122.646 15.315,121.970 15.551 C 120.983 15.895,120.604 16.800,121.447 16.800 C 121.557 16.800,121.549 16.640,121.428 16.445 C 121.308 16.250,121.571 15.996,122.014 15.880 C 122.493 15.755,122.796 15.858,122.762 16.135 C 122.731 16.391,122.727 35.991,122.753 59.691 L 122.800 102.781 127.877 97.891 C 135.759 90.298,149.272 77.023,163.352 63.039 C 178.396 48.096,185.151 42.800,189.165 42.800 C 189.598 42.800,190.064 42.620,190.200 42.400 C 190.336 42.180,190.872 42.000,191.391 42.000 C 193.743 42.000,193.600 43.329,193.600 21.437 C 193.600 5.927,193.714 1.238,194.100 0.826 C 194.510 0.388,194.438 0.330,193.699 0.508 C 193.204 0.628,192.900 0.562,193.023 0.363 C 193.323 -0.123,192.924 -0.095,191.925 0.440 C 191.372 0.736,191.189 0.742,191.365 0.456 C 191.598 0.079,183.416 -0.083,183.042 0.292 M196.000 40.715 C 196.000 40.889,197.963 41.024,200.362 41.015 C 202.761 41.007,204.640 40.865,204.538 40.700 C 204.290 40.298,196.000 40.313,196.000 40.715 M218.786 45.921 C 222.528 48.498,225.985 51.737,240.177 65.963 C 248.965 74.771,256.192 81.938,256.236 81.889 C 256.337 81.778,223.968 49.171,223.140 48.550 C 220.556 46.610,218.448 45.203,218.152 45.221 C 217.959 45.233,218.244 45.548,218.786 45.921 M199.500 65.082 C 199.995 65.178,200.805 65.178,201.300 65.082 C 201.795 64.987,201.390 64.909,200.400 64.909 C 199.410 64.909,199.005 64.987,199.500 65.082 M195.000 66.362 C 193.181 67.411,151.281 109.134,129.700 131.387 L 122.800 138.501 122.800 222.251 L 122.800 306.000 139.400 306.000 L 156.000 306.000 156.000 257.024 C 156.000 224.804,156.137 207.963,156.400 207.800 C 156.620 207.664,156.800 207.201,156.800 206.771 C 156.800 204.660,159.854 201.266,163.200 199.657 L 165.400 198.600 198.800 198.393 C 225.283 198.229,228.203 198.167,212.900 198.093 L 193.600 198.000 193.600 132.800 C 193.600 75.111,193.669 67.600,194.200 67.600 C 194.530 67.600,194.801 67.465,194.803 67.300 C 194.807 66.894,196.786 66.000,197.680 66.000 C 198.076 66.000,198.400 65.820,198.400 65.600 C 198.400 64.881,197.038 65.186,195.000 66.362 M203.000 65.600 C 203.136 65.820,203.599 66.000,204.029 66.000 C 205.922 66.000,205.632 65.733,229.477 89.542 C 240.572 100.621,249.721 109.612,249.810 109.523 C 250.203 109.131,207.314 66.836,205.716 66.040 C 203.932 65.150,202.588 64.933,203.000 65.600 M286.200 112.400 C 293.678 119.880,299.886 126.000,299.996 126.000 C 300.106 126.000,294.078 119.880,286.600 112.400 C 279.122 104.920,272.914 98.800,272.804 98.800 C 272.694 98.800,278.722 104.920,286.200 112.400 M252.600 112.800 C 254.128 114.340,255.469 115.600,255.579 115.600 C 255.689 115.600,254.528 114.340,253.000 112.800 C 251.472 111.260,250.131 110.000,250.021 110.000 C 249.911 110.000,251.072 111.260,252.600 112.800 M269.800 130.000 C 271.771 131.980,273.473 133.600,273.583 133.600 C 273.693 133.600,272.171 131.980,270.200 130.000 C 268.229 128.020,266.527 126.400,266.417 126.400 C 266.307 126.400,267.829 128.020,269.800 130.000 M282.000 142.104 C 282.000 142.161,285.555 145.716,289.900 150.004 L 297.800 157.800 290.004 149.900 C 282.760 142.560,282.000 141.819,282.000 142.104 M333.200 159.800 C 341.228 167.830,347.886 174.400,347.996 174.400 C 348.106 174.400,341.628 167.830,333.600 159.800 C 325.572 151.770,318.914 145.200,318.804 145.200 C 318.694 145.200,325.172 151.770,333.200 159.800 M321.296 203.500 L 321.393 225.000 321.500 203.700 C 321.559 191.985,321.734 182.400,321.888 182.400 C 322.043 182.400,322.987 183.165,323.985 184.100 L 325.800 185.800 324.017 183.900 C 321.022 180.709,321.189 179.509,321.296 203.500 M346.915 190.810 C 345.989 191.685,345.367 192.400,345.534 192.400 C 345.701 192.400,346.541 191.680,347.400 190.800 C 349.410 188.741,349.100 188.748,346.915 190.810 M233.800 198.680 C 236.927 199.391,237.656 199.496,237.348 199.193 C 237.157 199.004,236.100 198.770,235.000 198.674 C 233.900 198.577,233.360 198.580,233.800 198.680 M238.811 200.259 C 239.355 200.622,240.601 201.657,241.580 202.559 C 243.055 203.919,243.211 203.655,241.800 202.187 C 241.037 201.394,238.523 199.600,238.173 199.600 C 237.980 199.600,238.267 199.897,238.811 200.259 M244.998 258.200 L 245.000 306.200 261.000 306.207 L 277.000 306.214 261.102 306.102 L 245.203 305.991 245.099 258.095 L 244.995 210.200 244.998 258.200 M180.312 271.900 L 180.200 321.000 179.247 323.108 C 178.004 325.859,174.793 328.804,171.953 329.798 C 169.961 330.495,168.047 330.563,146.300 330.709 L 122.800 330.866 122.753 357.133 C 122.727 371.580,122.731 383.609,122.762 383.865 C 122.796 384.142,122.493 384.245,122.014 384.120 C 121.571 384.004,121.325 383.722,121.466 383.493 C 121.616 383.251,121.530 383.196,121.262 383.362 C 120.556 383.798,120.694 384.005,122.000 384.460 C 122.659 384.690,123.088 385.058,122.951 385.279 C 122.800 385.524,123.015 385.513,123.506 385.251 C 124.162 384.899,124.298 384.942,124.254 385.483 C 124.216 385.947,124.674 386.246,125.780 386.483 C 126.649 386.669,127.639 387.062,127.980 387.357 C 128.321 387.652,129.005 387.858,129.500 387.814 C 130.041 387.766,130.400 387.956,130.400 388.290 C 130.400 388.597,130.564 388.746,130.764 388.622 C 130.964 388.499,131.970 388.759,133.000 389.200 C 134.030 389.641,135.036 389.901,135.236 389.778 C 135.436 389.654,135.600 389.712,135.600 389.907 C 135.600 390.102,136.185 390.203,136.900 390.131 C 137.615 390.060,137.950 390.114,137.644 390.253 C 136.998 390.544,139.678 391.584,141.100 391.594 C 141.595 391.597,142.000 391.780,142.000 392.000 C 142.000 392.220,142.529 392.400,143.176 392.400 C 143.823 392.400,144.464 392.580,144.600 392.800 C 144.736 393.020,145.362 393.200,145.990 393.200 C 146.619 393.200,147.193 393.371,147.267 393.580 C 147.340 393.789,148.165 394.004,149.100 394.058 C 150.035 394.112,150.800 394.301,150.800 394.478 C 150.800 394.655,151.419 394.800,152.176 394.800 C 152.933 394.800,153.652 394.961,153.774 395.158 C 153.982 395.494,155.011 395.706,159.100 396.253 C 160.035 396.378,160.800 396.642,160.800 396.840 C 160.800 397.038,161.689 397.200,162.776 397.200 C 163.863 397.200,164.843 397.346,164.953 397.524 C 165.063 397.702,165.986 397.891,167.003 397.944 C 168.020 397.996,169.276 398.201,169.794 398.398 C 170.312 398.595,171.920 398.794,173.368 398.841 C 174.815 398.888,176.000 399.085,176.000 399.279 C 176.000 399.473,176.675 399.607,177.500 399.577 C 178.325 399.546,181.850 399.636,185.333 399.776 C 190.024 399.965,191.594 399.913,191.385 399.576 C 191.176 399.238,191.316 399.234,191.925 399.560 C 192.924 400.095,193.323 400.123,193.023 399.637 C 192.900 399.438,193.204 399.372,193.699 399.492 C 194.438 399.670,194.510 399.612,194.100 399.174 C 193.703 398.750,193.600 380.547,193.600 310.932 L 193.600 223.225 198.500 223.099 C 201.195 223.030,198.230 222.934,191.912 222.886 L 180.424 222.800 180.312 271.900 M220.895 272.276 C 220.843 299.378,220.935 321.636,221.100 321.738 C 221.369 321.905,221.366 272.620,221.094 236.800 C 221.036 229.210,220.947 245.174,220.895 272.276 M308.705 271.083 C 309.202 271.179,309.922 271.175,310.305 271.075 C 310.687 270.975,310.280 270.896,309.400 270.901 C 308.520 270.905,308.207 270.987,308.705 271.083 M297.040 286.440 C 296.893 287.357,296.852 288.185,296.947 288.280 C 297.042 288.376,297.246 287.710,297.400 286.800 C 297.554 285.890,297.596 285.062,297.493 284.960 C 297.390 284.857,297.187 285.523,297.040 286.440 M320.650 290.450 C 320.509 291.153,320.469 291.802,320.559 291.892 C 320.650 291.983,320.848 291.491,321.000 290.800 C 321.152 290.109,321.193 289.459,321.091 289.358 C 320.989 289.256,320.791 289.747,320.650 290.450 M282.600 304.614 C 281.595 305.098,281.563 305.153,282.400 304.951 C 282.950 304.819,283.571 304.550,283.780 304.355 C 284.298 303.871,284.014 303.933,282.600 304.614 M307.600 316.200 C 306.628 317.190,305.923 318.000,306.033 318.000 C 306.143 318.000,307.028 317.190,308.000 316.200 C 308.972 315.210,309.677 314.400,309.567 314.400 C 309.457 314.400,308.572 315.210,307.600 316.200 M226.224 328.587 C 226.651 328.910,227.180 329.175,227.400 329.175 C 227.620 329.175,227.451 328.910,227.024 328.587 C 226.596 328.264,226.067 328.000,225.847 328.000 C 225.627 328.000,225.796 328.264,226.224 328.587 M281.400 329.600 L 279.800 329.886 281.200 329.915 C 281.970 329.931,282.960 329.789,283.400 329.600 C 284.343 329.195,283.662 329.195,281.400 329.600 M230.937 330.494 C 231.192 330.656,241.120 330.753,253.000 330.710 C 264.880 330.666,272.800 330.581,270.600 330.519 C 260.917 330.247,230.519 330.228,230.937 330.494 M276.105 330.287 C 276.714 330.379,277.614 330.377,278.105 330.282 C 278.597 330.187,278.100 330.111,277.000 330.114 C 275.900 330.117,275.497 330.195,276.105 330.287 " stroke="none" fill="#04ccfc" fill-rule="evenodd"></path></g></svg>