<?xml version="1.0" standalone="no"?>
<!DOCTYPE svg PUBLIC "-//W3C//DTD SVG 20010904//EN"
 "http://www.w3.org/TR/2001/REC-SVG-20010904/DTD/svg10.dtd">
<svg version="1.0" xmlns="http://www.w3.org/2000/svg"
 width="512.000000pt" height="512.000000pt" viewBox="0 0 512.000000 512.000000"
 preserveAspectRatio="xMidYMid meet">

<g transform="translate(0.000000,512.000000) scale(0.100000,-0.100000)"
fill="#000000" stroke="none">
<path d="M2485 5111 c-90 -22 -173 -90 -215 -176 -23 -48 -25 -61 -28 -267
l-4 -216 -76 -17 c-229 -50 -485 -157 -659 -276 -23 -16 -45 -29 -49 -29 -5 0
-71 63 -149 139 -153 152 -192 177 -297 188 -79 8 -170 -17 -234 -65 -71 -55
-119 -151 -119 -241 0 -116 18 -146 191 -321 l154 -155 -31 -45 c-132 -197
-244 -466 -289 -692 l-11 -56 -217 -4 c-206 -3 -219 -5 -267 -28 -263 -129
-235 -511 45 -594 41 -12 99 -16 246 -16 l193 0 11 -57 c43 -220 159 -501 281
-680 16 -23 29 -45 29 -49 0 -5 -63 -71 -139 -149 -152 -153 -177 -192 -188
-297 -14 -134 52 -257 171 -318 59 -30 77 -34 139 -34 114 0 147 21 323 195
l152 151 48 -35 c166 -118 435 -232 667 -282 l77 -17 0 -192 c0 -214 10 -268
61 -343 52 -75 165 -133 259 -133 94 0 207 58 259 133 51 75 61 129 61 343 l0
193 58 11 c228 45 494 156 692 289 l45 31 145 -145 c173 -172 204 -190 325
-190 71 0 88 4 147 33 112 55 172 152 172 277 0 111 -21 145 -194 320 l-150
151 34 50 c127 188 232 437 281 667 l17 77 192 0 c214 0 268 10 343 61 75 52
133 165 133 259 0 94 -58 207 -133 259 -75 51 -129 61 -343 61 l-193 0 -11 58
c-43 220 -158 496 -286 686 l-34 50 145 146 c156 157 182 198 192 296 8 75
-18 167 -65 230 -55 71 -151 119 -241 119 -116 0 -146 -18 -321 -191 l-155
-153 -95 61 c-196 123 -421 214 -642 258 l-58 11 0 193 c0 214 -10 268 -61
343 -68 99 -214 153 -334 124z m-35 -1654 l0 -483 -51 -22 -51 -21 -344 337
c-189 185 -344 340 -344 345 0 17 179 138 274 185 154 77 362 139 479 141 l37
1 0 -483z m454 447 c121 -30 260 -87 365 -149 80 -48 191 -131 191 -143 0 -4
-155 -159 -344 -344 l-344 -337 -51 21 -51 22 0 484 0 485 68 -7 c37 -4 112
-18 166 -32z m-1052 -788 l337 -344 -21 -51 -22 -51 -484 0 -485 0 7 68 c16
161 90 377 181 531 48 80 131 191 143 191 4 0 159 -155 344 -344z m1827 265
c138 -186 236 -431 257 -643 l7 -68 -485 0 -484 0 -22 51 -21 51 337 344 c185
189 340 344 344 344 5 0 34 -35 67 -79z m-1005 -641 c20 -14 49 -43 64 -64 24
-35 27 -49 27 -116 0 -67 -3 -81 -27 -116 -15 -21 -44 -50 -65 -64 -31 -21
-48 -25 -113 -25 -65 0 -82 4 -113 25 -81 55 -118 161 -88 253 14 41 72 104
115 123 50 23 155 14 200 -16z m-506 -341 l21 -51 -337 -344 c-185 -189 -340
-344 -345 -344 -11 0 -120 150 -160 221 -80 145 -148 353 -163 502 l-7 67 485
0 484 0 22 -51z m1772 21 c0 -49 -36 -220 -65 -305 -39 -119 -117 -269 -190
-367 -36 -49 -68 -88 -72 -88 -5 0 -160 155 -345 344 l-337 344 21 51 22 51
483 0 483 0 0 -30z m-1537 -254 l47 -19 0 -483 0 -484 -30 0 c-49 0 -221 36
-305 65 -110 37 -265 116 -358 183 -43 30 -83 62 -89 69 -9 12 55 80 333 353
189 186 346 338 349 337 3 -1 26 -10 53 -21z m713 -313 c189 -186 344 -341
344 -346 0 -11 -150 -120 -221 -160 -145 -80 -353 -148 -501 -163 l-68 -7 0
485 0 484 48 21 c26 12 48 21 50 22 2 1 158 -151 348 -336z"/>
</g>
</svg>
